HIERARCHY
ROOT Hips
{
	OFFSET 0.000000 0.000000 0.000000
	CHANNELS 6 Xposition Yposition Zposition Xrotation Yrotation Zrotation
	JOINT LeftUpLeg_virtual
	{
		OFFSET 0.000000 0.000000 0.000000
		CHANNELS 3 Xrotation Yrotation Zrotation
		JOINT LeftUpLeg
		{
			OFFSET 13.026900 -6.336304 -1.092800
			CHANNELS 3 Xrotation Yrotation Zrotation
			JOINT LeftLeg
			{
				OFFSET 0.524474 -46.096886 9.782700
				CHANNELS 3 Xrotation Yrotation Zrotation
				JOINT LeftFoot
				{
					OFFSET -0.524474 -53.427422 -12.948200
					CHANNELS 3 Xrotation Yrotation Zrotation
					JOINT LeftToeBase
					{
						OFFSET 0.192200 -14.009700 16.364100
						CHANNELS 3 Xrotation Yrotation Zrotation
						JOINT LeftToe_End
						{
							OFFSET -1.784700 -0.561700 9.474800
							CHANNELS 3 Xrotation Yrotation Zrotation
							End Site
							{
								OFFSET 0 0 0
							}
						}
					}
				}
			}
		}
	}
	JOINT RightUpLeg_virtual
	{
		OFFSET 0.000000 0.000000 0.000000
		CHANNELS 3 Xrotation Yrotation Zrotation
		JOINT RightUpLeg
		{
			OFFSET -12.883000 -6.336304 -1.092800
			CHANNELS 3 Xrotation Yrotation Zrotation
			JOINT RightLeg
			{
				OFFSET -0.524587 -46.096825 9.782800
				CHANNELS 3 Xrotation Yrotation Zrotation
				JOINT RightFoot
				{
					OFFSET 0.524587 -53.427383 -12.948300
					CHANNELS 3 Xrotation Yrotation Zrotation
					JOINT RightToeBase
					{
						OFFSET -0.192200 -14.009700 16.364100
						CHANNELS 3 Xrotation Yrotation Zrotation
						JOINT RightToe_End
						{
							OFFSET 1.784700 -0.561700 9.474800
							CHANNELS 3 Xrotation Yrotation Zrotation
							End Site
							{
								OFFSET 0 0 0
							}
						}
					}
				}
			}
		}
	}
	JOINT Spine_virtual
	{
		OFFSET 0.000000 0.000000 0.000000
		CHANNELS 3 Xrotation Yrotation Zrotation
		JOINT Spine
		{
			OFFSET 0.072000 7.257294 -0.789700
			CHANNELS 3 Xrotation Yrotation Zrotation
			JOINT Spine1
			{
				OFFSET 0.000000 12.508769 -0.658067
				CHANNELS 3 Xrotation Yrotation Zrotation
				JOINT Spine1_split
				{
					OFFSET 0.000000 12.508769 -0.658067
					CHANNELS 3 Xrotation Yrotation Zrotation
					JOINT Spine2
					{
						OFFSET 0.000000 12.508769 -0.658067
						CHANNELS 3 Xrotation Yrotation Zrotation
						JOINT Neck_virtual
						{
							OFFSET 0.000000 0.000000 0.000000
							CHANNELS 3 Xrotation Yrotation Zrotation
							JOINT Neck
							{
								OFFSET 0.000000 14.033295 7.520400
								CHANNELS 3 Xrotation Yrotation Zrotation
								JOINT Head
								{
									OFFSET 0.000000 8.198502 5.703100
									CHANNELS 3 Xrotation Yrotation Zrotation
									JOINT HeadTop_End
									{
										OFFSET 0.000000 17.760803 13.332701
										CHANNELS 3 Xrotation Yrotation Zrotation
										End Site
										{
											OFFSET 0 0 0
										}
									}
								}
							}
						}
						JOINT LeftShoulder_virtual
						{
							OFFSET 0.000000 0.000000 0.000000
							CHANNELS 3 Xrotation Yrotation Zrotation
							JOINT LeftShoulder
							{
								OFFSET 6.292450 5.785301 -0.669000
								CHANNELS 3 Xrotation Yrotation Zrotation
								JOINT LeftShoulder_split
								{
									OFFSET 6.292450 5.785301 -0.669000
									CHANNELS 3 Xrotation Yrotation Zrotation
									JOINT LeftArm
									{
										OFFSET 13.907140 -6.093903 1.965100
										CHANNELS 3 Xrotation Yrotation Zrotation
										JOINT LeftForeArm
										{
											OFFSET 34.140198 0.000000 0.000000
											CHANNELS 3 Xrotation Yrotation Zrotation
											JOINT LeftHand
											{
												OFFSET 40.960209 0.000000 0.000000
												CHANNELS 3 Xrotation Yrotation Zrotation
												End Site
												{
													OFFSET 0 0 0
												}
											}
										}
									}
								}
							}
						}
						JOINT RightShoulder_virtual
						{
							OFFSET 0.000000 0.000000 0.000000
							CHANNELS 3 Xrotation Yrotation Zrotation
							JOINT RightShoulder
							{
								OFFSET -6.292450 5.785301 -0.669000
								CHANNELS 3 Xrotation Yrotation Zrotation
								JOINT RightShoulder_split
								{
									OFFSET -6.292450 5.785301 -0.669000
									CHANNELS 3 Xrotation Yrotation Zrotation
									JOINT RightArm
									{
										OFFSET -13.907140 -6.093903 1.965100
										CHANNELS 3 Xrotation Yrotation Zrotation
										JOINT RightForeArm
										{
											OFFSET -34.140198 0.000000 0.000000
											CHANNELS 3 Xrotation Yrotation Zrotation
											JOINT RightHand
											{
												OFFSET -40.960209 0.000000 0.000000
												CHANNELS 3 Xrotation Yrotation Zrotation
												End Site
												{
													OFFSET 0 0 0
												}
											}
										}
									}
								}
							}
						}
					}
				}
			}
		}
	}
}
MOTION
Frames: 4
Frame Time: 0.03333333
-6.697488 89.788689 -10.324116 0.000000 0.000000 0.000000 2.657053 1.486067 6.895687 -59.661252 12.912450 29.980675 51.431229 -23.501397 4.840314 5.603286 -2.788936 -18.797210 -1.260977 -3.503660 1.241255 0.000000 0.000000 0.000000 0.970582 3.905859 6.941608 -30.746226 -3.208875 -28.505328 56.215073 15.146272 -5.974720 -27.014807 -6.313908 34.111064 7.232967 1.363513 -6.635784 0.000000 0.000000 0.000000 0.916120 8.264109 7.789774 2.715954 2.901383 -2.570160 10.602972 4.812048 -4.253336 0.222480 -1.971440 0.438104 0.000000 0.000000 0.000000 8.720523 6.363569 -2.520602 -28.896915 27.522771 27.294348 -0.265783 22.934705 0.211582 0.000000 0.000000 0.000000 4.649619 3.395933 -3.126729 -1.422458 -10.434034 10.476121 -2.702515 -2.784071 1.079363 0.600282 36.610435 -61.623879 -51.345223 -67.552511 -45.235930 0.000000 0.000000 0.000000 4.118848 2.449202 -1.924723 1.976838 3.841525 -5.152848 -14.481008 5.133381 -4.793595 -7.265133 -19.016838 51.940010 -17.549034 46.916829 21.070449 0.000000 0.000000 0.000000 
-6.982019 90.099380 -10.494205 0.000000 0.000000 0.000000 2.406212 1.491855 6.861001 -59.567275 12.840358 29.967154 50.586546 -23.355900 4.499259 6.134592 -2.364086 -18.355131 -0.345844 -3.500271 1.059440 0.000000 0.000000 0.000000 0.734681 3.726698 6.928817 -30.299737 -3.335434 -28.312792 55.317145 14.865994 -5.722791 -27.048592 -6.386377 33.607942 7.350616 1.385827 -6.680149 0.000000 0.000000 0.000000 0.343888 8.076585 7.781390 2.618505 2.869253 -2.653399 10.600745 4.658991 -4.327838 0.153910 -1.910240 0.337753 0.000000 0.000000 0.000000 8.664248 6.275771 -2.500681 -28.894255 27.521677 27.382085 -0.605016 23.754925 -0.204869 0.000000 0.000000 0.000000 4.530819 3.256266 -3.132227 -1.274067 -10.602763 10.649958 -2.778874 -1.964698 0.545178 0.163823 36.586417 -61.672312 -54.072985 -68.253090 -48.136581 0.000000 0.000000 0.000000 4.139477 2.347526 -1.821373 1.849157 3.404813 -5.524361 -14.430407 4.635916 -4.632376 -6.173257 -19.593707 52.427460 -18.273500 47.999831 21.748343 0.000000 0.000000 0.000000 
-7.236533 90.734062 -10.705242 0.000000 0.000000 0.000000 2.113935 0.388748 6.850209 -59.200863 13.284256 30.108153 49.267886 -22.923206 4.095800 6.454846 -1.549720 -17.828431 0.376942 -3.507276 0.698012 0.000000 0.000000 0.000000 0.205531 1.989718 7.012738 -30.164516 -3.248015 -27.783895 54.423688 14.567147 -5.439000 -26.448004 -6.118898 32.847742 6.785110 1.381655 -6.543955 0.000000 0.000000 0.000000 -0.377139 7.106508 7.732537 2.773921 2.869831 -2.788977 10.592041 4.430283 -4.440945 0.092707 -1.823153 0.232760 0.000000 0.000000 0.000000 8.603048 6.109022 -2.498749 -29.016846 27.530730 27.863398 -1.466405 25.816310 -0.324587 0.000000 0.000000 0.000000 4.452718 3.102473 -3.132596 -1.057059 -10.874823 10.963586 -2.524150 -0.940205 -0.298956 -0.542912 37.104747 -61.238417 -58.747830 -68.718315 -53.133315 0.000000 0.000000 0.000000 4.161116 2.195409 -1.792740 1.678482 2.763587 -6.408711 -14.841547 5.432235 -3.373994 -4.283660 -21.165339 53.551176 -19.311383 50.632841 22.494081 0.000000 0.000000 0.000000 
-7.581547 91.534775 -10.775028 0.000000 0.000000 0.000000 1.800495 -2.127763 6.798591 -58.769372 14.039837 30.454191 48.111658 -22.369249 3.838188 6.737058 -0.483271 -17.423239 0.644884 -3.510010 0.318118 0.000000 0.000000 0.000000 -0.302433 -0.683726 7.096950 -30.240055 -2.678809 -26.836918 53.654117 14.280459 -5.159110 -25.374776 -5.620268 31.786351 5.805889 1.342070 -6.198722 0.000000 0.000000 0.000000 -1.088365 5.139819 7.554221 3.208941 2.865132 -2.926036 10.614412 4.129251 -4.537226 0.089998 -1.785989 0.211194 0.000000 0.000000 0.000000 8.558986 5.867787 -2.503449 -29.278456 27.581919 28.586054 -2.875569 28.953684 0.022336 0.000000 0.000000 0.000000 4.424164 2.944327 -3.131448 -0.787774 -11.206543 11.323859 -2.079028 0.333284 -1.395156 -1.624368 37.978003 -60.197510 -64.229289 -68.843034 -58.997808 0.000000 0.000000 0.000000 4.172836 2.001830 -1.841151 1.460389 2.178081 -7.565007 -15.577244 6.930659 -1.680433 -2.183319 -23.319155 54.886092 -20.353260 53.762041 23.045342 0.000000 0.000000 0.000000 
